<svg width="100" height="100" viewBox="0 0 100 100" fill="none" xmlns="http://www.w3.org/2000/svg">
<g clip-path="url(#clip0_1_2)">
<rect width="100" height="100" rx="20" fill="white"/>
<rect width="100" height="100" fill="#F27500"/>
<path d="M50.7363 24.5C55.2502 24.5 58.8703 26.0003 61.5371 29.0303C64.1938 32.0487 65.5 36.0202 65.5 40.8936C65.5 46.9334 64.205 52.1701 61.5928 56.583L61.5908 56.584C59.1316 60.7017 55.8281 63.4919 51.6846 64.9248C51.875 65.0495 52.0796 65.1907 52.2949 65.3506C52.7215 65.6674 53.2103 66.0615 53.7607 66.5312L54.332 67.0264L54.3369 67.0303C55.1068 67.7262 55.7671 68.2338 56.3203 68.5645C56.8834 68.901 57.2858 69.0243 57.5527 69.0244C58.3011 69.0244 59.4363 68.7638 60.9902 68.1943L61.4102 68.041L61.6094 68.4404L62.6406 70.5059L62.8291 70.8838L62.4883 71.1328C60.9831 72.2345 59.6275 73.0715 58.4238 73.6348C57.2246 74.196 56.146 74.5 55.2041 74.5C53.3227 74.4998 51.6634 73.5066 50.2275 71.6689L50.2217 71.6602C49.6553 70.9037 49.0501 70.1463 48.4072 69.3887L48.4053 69.3857C46.9328 67.6231 44.8581 66.5445 42.1338 66.1758V66.1748C38.1599 65.7 35.0358 63.9948 32.8086 61.0469C30.5877 58.1071 29.5001 54.2816 29.5 49.6152C29.5 42.2619 31.3556 36.232 35.1094 31.5713H35.1104C38.9193 26.8515 44.1476 24.5 50.7363 24.5ZM49.4189 28.541C47.1891 28.541 45.2517 29.1611 43.5869 30.3936C41.9063 31.6378 40.6233 33.2865 39.7393 35.3525L39.7373 35.3574C37.8935 39.541 36.9727 43.8715 36.9727 48.3525C36.9727 52.8586 37.7312 56.293 39.1924 58.708C40.6651 61.0798 42.7933 62.2539 45.6387 62.2539C47.4238 62.2538 49.0121 61.8171 50.417 60.9512L50.4238 60.9473C52.9292 59.456 54.8346 56.8911 56.1064 53.1816C57.3868 49.4473 58.0273 45.6008 58.0273 41.6396C58.0273 37.6467 57.237 34.4794 55.7012 32.0986L55.6963 32.0918C54.2191 29.71 52.1434 28.541 49.4189 28.541Z" fill="#F7F7F7" stroke="#F7F7F7"/>
<rect x="58" y="76" width="26" height="2" rx="1" fill="#F7F7F7"/>
<rect x="65" y="67" width="25" height="2" rx="1" fill="#F7F7F7"/>
<rect x="66" y="72" width="26" height="2" rx="1" fill="#F7F7F7"/>
</g>
<defs>
<clipPath id="clip0_1_2">
<rect width="100" height="100" rx="20" fill="white"/>
</clipPath>
</defs>
</svg>
